# xmcd
# Copyright (c) 1998 CDDB Inc.
#
# Track frame offsets:
#	150
#	22298
#	41990
#	65972
#	86625
#	100692
#	123950
#	153482
#	183275
#	205886
#	226170
#	246290
#	271524
#	298235
#
# Disc length: 4237 seconds
#
# Revision: 1
# Processed by: cddbd v1.4PL0 Copyright (c) Steve Scherf et al.
# Submitted via: audiograbber 1.70
#
DISCID=cb108b0e
DTITLE=South O' The Border - Live
DYEAR=1900
DGENRE=
TTITLE0=Low Down Dirty Mean
TTITLE1=Ain't No Fun To Me
TTITLE2=Five O Blues
TTITLE3=My God Is Real
TTITLE4=Honky Tonk
TTITLE5=Sweet Home Chicago
TTITLE6=The Woodcutters Son
TTITLE7=The Letter
TTITLE8=High Heel Sneakers
TTITLE9=We Want The Funk
TTITLE10=Scratch My Back
TTITLE11=Hoochie Koochie Man
TTITLE12=Light My Fire
TTITLE13=Come Together
EXTD=
EXTT0=
EXTT1=
EXTT2=
EXTT3=
EXTT4=
EXTT5=
EXTT6=
EXTT7=
EXTT8=
EXTT9=
EXTT10=
EXTT11=
EXTT12=
EXTT13=
PLAYORDER=
